# xmcd
#
# Track frame offsets:
#      150
#      20541
#      29550
#      39374
#      52033
#      71232
#      84439
#      94708
#      104874
#      116016
#      128805
#      132834
#      150955
#      161244
#      187378
#      201095
#      212984
#      227960
#      240649
#      253998
#      263700
#      276029
#      288888
#      301127
#      313298
# 
# Disc length: 4363 seconds
#
# Revision: 3
# Processed by: cddbd v1.4PL0 Copyright (c) Steve Scherf et al.
#
# Submitted via: FreeRIP 1.20
#
DISCID=7c110919
DTITLE=misc - Country Golden Hits Vol. 2 CD 2
DYEAR=1900
DGENRE=country
TTITLE0=Gram Parsons and Emmylou Harris  Love hurts
TTITLE1=Sandy Posey  Born a woman
TTITLE2=Dave Dudley  Cowboy boots
TTITLE3=Freddy Fender  Silver wings
TTITLE4=Dave Travis  Sweet country music
TTITLE5=Donna Fargo  Daddy
TTITLE6=Barbara Mandrell  Kaw-Liga (live)
TTITLE7=Buck Owens  Rhythm and booze
TTITLE8=Carl Perkins  Dixie friend  
TTITLE9=Kitty Wells  Making believe
TTITLE10=Charley Pride  San Antone
TTITLE11=Rick Nelson  Garden party
TTITLE12=B.J. Thomas  Walking back
TTITLE13=Brenda Lee  Medley (live) - Jambalya
TTITLE14=Freddy Fender  Baby I want to love you
TTITLE15=Don David Jr.  Country kings
TTITLE16=Billie Jo Spears  Crystal chandeliers
TTITLE17=Johnny Paycheck  Georgia in a jug
TTITLE18=Roy Acuff  Tennessee waltz
TTITLE19=Ned Miller  From a jack to a king
TTITLE20=Loretta Lynn  Blue Kentucky girl
TTITLE21=Frankie Lane  Moonlight gambler
TTITLE22=Billie Jo Spears  Look what they have done to my song Ma
TTITLE23=Hank Locklin  Queen of heart
TTITLE24=Phil Carmen  Moonshine still (live)
EXTD=
EXTT0=
EXTT1=
EXTT2=
EXTT3=
EXTT4=
EXTT5=
EXTT6=
EXTT7=
EXTT8=
EXTT9=
EXTT10=
EXTT11=
EXTT12=
EXTT13=
EXTT14=
EXTT15=
EXTT16=
EXTT17=
EXTT18=
EXTT19=
EXTT20=
EXTT21=
EXTT22=
EXTT23=
EXTT24=
PLAYORDER=
